<svg xmlns="http://www.w3.org/2000/svg" xmlns:xlink="http://www.w3.org/1999/xlink" width="19.996826171875" height="19.996795654296875" viewBox="0 0 19.996826171875 19.996795654296875" fill="none">
<path d="M9.2105 3.2L9.2105 0L10.7905 0L10.7905 3.2C10.2659 3.13971 9.73509 3.13971 9.2105 3.2ZM2.37 3.4905L4.64 5.7505C4.96793 5.33703 5.33653 4.96843 5.75 4.6405L3.49 2.3705L2.37 3.4905ZM14.2484 4.6405C14.6619 4.96843 15.0405 5.33703 15.3684 5.7505L17.6284 3.4905L16.5084 2.3705L14.2484 4.6405ZM4.7368 9.9968C4.7368 12.9036 7.08996 15.2668 9.9968 15.2668C12.9036 15.2668 15.2668 12.9036 15.2668 9.9968C15.2668 7.08996 12.9036 4.7368 9.9968 4.7368C7.08996 4.7368 4.7368 7.08996 4.7368 9.9968ZM0 9.2105L0 10.7905L3.2 10.7905C3.13971 10.2659 3.13971 9.73509 3.2 9.2105L0 9.2105ZM16.7968 9.2105C16.8571 9.73509 16.8571 10.2659 16.7968 10.7905L19.9968 10.7905L19.9968 9.2105L16.7968 9.2105ZM2.3705 16.5079L3.4905 17.6279L5.7505 15.3679C5.33703 15.04 4.96843 14.6614 4.6405 14.2479L2.3705 16.5079ZM14.2479 15.3679L16.5079 17.6279L17.6279 16.5079L15.3679 14.2479C15.04 14.6614 14.6614 15.04 14.2479 15.3679ZM9.2105 16.7968L9.2105 19.9968L10.7905 19.9968L10.7905 16.7968C10.2659 16.8571 9.73509 16.8571 9.2105 16.7968Z" fill-rule="evenodd"  fill="#CACADA" >
</path>
</svg>
