<?xml version="1.0" encoding="UTF-8"?>
<svg id="_图层_2" data-name="图层 2" xmlns="http://www.w3.org/2000/svg" viewBox="0 0 205.83 154.86">
  <defs>
    <style>
      .cls-1 {
        fill: #fff;
      }

      .cls-2 {
        fill: #f0dcae;
      }

      .cls-3 {
        fill: #6d2268;
      }

      .cls-4 {
        fill: #d49f15;
      }
    </style>
  </defs>
  <g id="_图层_1-2" data-name="图层 1">
    <g>
      <g>
        <path class="cls-1" d="m2.46,150.74c0,.39-.02.65-.09.76-.06.1-.19.14-.43.15l-.49.03v.31c.53-.02,1.01-.03,1.51-.03.47,0,.95,0,1.48.03v-.31l-.49-.03c-.25,0-.37-.05-.43-.15-.07-.11-.09-.38-.09-.76v-4.31c0-.39.01-.72.04-1.02h1.58c.31,0,.39.09.41.34l.04.81h.31c0-.55.02-1.11.07-1.64-.37,0-.73,0-1.1,0-.37.01-.73.02-1.1.02h-1.48c-.73,0-1.47-.03-2.2-.03.05.53.07,1.09.07,1.64h.32l.04-.81c.02-.25.1-.34.41-.34h1.58c.03.3.04.63.04,1.02v4.31Z"/>
        <path class="cls-1" d="m6.88,150.93c0,.27,0,.48-.05.59-.04.09-.15.13-.32.14l-.46.03v.31c.36,0,.77-.03,1.27-.03s.91.02,1.27.03v-.31l-.46-.03c-.18-.01-.29-.05-.32-.14-.04-.11-.05-.32-.05-.59v-2.16c0-.42.63-.96,1.26-.96.69,0,1.17.45,1.17,1.29v2.9c.23,0,.53-.03.81-.03s.58.02.84.03v-.31l-.42-.03c-.17-.01-.29-.05-.33-.14-.04-.11-.05-.32-.05-.59v-1.97c0-1.11-.49-1.77-1.69-1.77-.41,0-.6.06-.82.25l-.76.65h-.02v-3.45l-.09-.08c-.51.2-1.05.3-1.59.38v.29h.57c.22,0,.25.18.25.42v5.28Z"/>
        <path class="cls-1" d="m14.24,147.19c-.35,0-.64.11-1,.28-.22.1-.44.26-.63.41-.47.37-.74.96-.74,1.95,0,1.38.82,2.36,2.36,2.36.69,0,1.56-.45,1.63-.57l.2-.35-.13-.1c-.39.23-.77.48-1.26.48-1.26,0-1.85-.82-1.85-2.01h1.49c.61,0,1.24-.04,1.85-.14.02-.14.02-.29.02-.43,0-1.15-.83-1.87-1.94-1.87m-.05.34c.74,0,1.08.78,1.08,1.73-.73.04-1.59.06-2.43-.03-.05-1.11.56-1.69,1.34-1.69"/>
        <path class="cls-1" d="m24.96,151.11l-.09-.1c-.47.35-1.34.61-2.07.61-2.02,0-3.36-1.31-3.36-3.32,0-1.73,1.01-3.13,2.93-3.13.38,0,.82.06,1.14.17.47.17.88.35.88.63v.73h.31c0-.53.09-1.07.2-1.55-.49-.17-1.41-.41-2.36-.41-1.14,0-2.18.34-2.95.98-.78.64-1.24,1.57-1.24,2.75,0,2.32,1.65,3.71,4.1,3.71.62,0,1.63-.19,2.22-.55l.29-.51Z"/>
        <path class="cls-1" d="m25.95,150.93c0,.27,0,.48-.05.59-.04.09-.15.13-.33.14l-.46.03v.31c.36,0,.77-.03,1.27-.03s.91.02,1.26.03v-.31l-.46-.03c-.17-.01-.28-.05-.32-.14-.04-.11-.05-.32-.05-.59v-2.16c0-.42.63-.96,1.25-.96.7,0,1.17.45,1.17,1.29v2.9c.24,0,.53-.03.82-.03s.58.02.84.03v-.31l-.42-.03c-.18-.01-.29-.05-.33-.14-.04-.11-.05-.32-.05-.59v-1.97c0-1.11-.49-1.77-1.69-1.77-.41,0-.6.06-.83.25l-.76.65h-.02v-3.45l-.09-.08c-.51.2-1.05.3-1.59.38v.29h.57c.22,0,.25.18.25.42v5.28Z"/>
        <path class="cls-1" d="m32.12,144.96c-.29,0-.56.27-.56.57s.27.56.56.56.57-.26.57-.56-.27-.57-.57-.57m.48,2.27l-.09-.04c-.38.16-.99.36-1.59.42v.29h.38c.21,0,.32.03.38.11.05.08.07.3.07.63v2.29c0,.28-.01.48-.05.59-.04.09-.15.13-.32.14l-.47.03v.31c.37,0,.78-.03,1.28-.03s.91.02,1.28.03v-.31l-.47-.03c-.18,0-.29-.05-.33-.14-.04-.11-.05-.32-.05-.59v-3.7Z"/>
        <path class="cls-1" d="m35.1,148.77c0-.42.63-.96,1.25-.96.69,0,1.17.45,1.17,1.29v2.9c.23,0,.53-.03.81-.03s.58.02.84.03v-.31l-.42-.03c-.17-.01-.29-.05-.33-.14-.04-.11-.05-.32-.05-.59v-1.97c0-1.11-.49-1.77-1.69-1.77-.41,0-.6.06-.82.26l-.76.65h-.02v-.87l-.09-.04c-.38.16-.99.36-1.59.42v.29h.38c.21,0,.32.03.38.11.05.08.07.3.07.63v2.29c0,.27-.01.48-.05.59-.04.09-.15.13-.33.14l-.46.03v.31c.36,0,.77-.03,1.27-.03s.91.02,1.27.03v-.31l-.46-.03c-.17-.01-.28-.05-.33-.14-.04-.11-.05-.32-.05-.59v-2.16Z"/>
        <path class="cls-1" d="m41.6,147.19c-.34,0-.64.11-1,.28-.23.1-.44.26-.63.41-.47.37-.73.96-.73,1.95,0,1.38.82,2.36,2.36,2.36.69,0,1.56-.45,1.63-.57l.2-.35-.13-.1c-.39.23-.77.48-1.26.48-1.26,0-1.85-.82-1.85-2.01h1.49c.61,0,1.24-.04,1.85-.14.02-.14.02-.29.02-.43,0-1.15-.83-1.87-1.94-1.87m-.05.34c.74,0,1.08.78,1.08,1.73-.73.04-1.59.06-2.43-.03-.05-1.11.56-1.69,1.34-1.69"/>
        <path class="cls-1" d="m43.97,150.51c0,.48,0,.97-.11,1.42.5.17.94.24,1.43.24,1.13,0,2.26-.59,2.26-1.71,0-.79-.57-1.1-1.79-1.31-.77-.13-1.11-.37-1.11-.81,0-.35.13-.83,1-.83.58,0,1.18.31,1.18.84v.23h.28c.01-.41.02-.79.05-1.15-.4-.14-.84-.26-1.31-.26-.96,0-1.92.39-1.92,1.49,0,.62.38.93.87,1.11.49.18,1.05.3,1.5.41.32.08.49.35.49.67,0,.55-.55.93-1.2.93-.59,0-1.32-.24-1.32-.87v-.42h-.31Z"/>
        <path class="cls-1" d="m50.2,147.19c-.35,0-.64.11-1,.28-.23.1-.44.26-.63.41-.47.37-.74.96-.74,1.95,0,1.38.82,2.36,2.36,2.36.7,0,1.56-.45,1.63-.57l.2-.35-.13-.1c-.39.23-.77.48-1.27.48-1.25,0-1.84-.82-1.84-2.01h1.49c.62,0,1.24-.04,1.85-.14.02-.14.02-.29.02-.43,0-1.15-.83-1.87-1.94-1.87m-.05.34c.73,0,1.08.78,1.08,1.73-.73.04-1.59.06-2.42-.03-.05-1.11.56-1.69,1.35-1.69"/>
        <path class="cls-1" d="m55.12,149.79c0,1.87,1.02,2.39,2.75,2.39,2.06,0,2.89-.88,2.89-3.06v-2.95c0-.39.02-.65.09-.76.06-.1.18-.13.43-.15l.45-.03v-.31c-.45.01-.82.03-1.22.03-.37,0-.78-.02-1.18-.03v.31l.45.03c.24.02.37.05.43.15.07.11.09.38.09.76v3.26c0,1.69-1,2.11-2.1,2.11-1.35,0-2.1-.42-2.1-1.87v-3.51c0-.39.02-.65.09-.76.06-.1.18-.14.43-.15l.49-.03v-.31c-.53.02-1.01.03-1.48.03-.5,0-.98,0-1.51-.03v.31l.49.03c.24,0,.37.05.43.15.07.11.09.38.09.76v3.62Z"/>
        <path class="cls-1" d="m63.06,148.77c0-.42.63-.96,1.26-.96.69,0,1.17.45,1.17,1.29v2.9c.24,0,.53-.03.82-.03s.58.02.84.03v-.31l-.42-.03c-.18-.01-.29-.05-.33-.14-.04-.11-.05-.32-.05-.59v-1.97c0-1.11-.49-1.77-1.68-1.77-.41,0-.6.06-.82.26l-.76.65h-.02v-.87l-.09-.04c-.38.16-.99.36-1.59.42v.29h.38c.21,0,.31.03.37.11.05.08.07.3.07.63v2.29c0,.27-.01.48-.05.59-.04.09-.15.13-.33.14l-.46.03v.31c.35,0,.76-.03,1.27-.03s.9.02,1.26.03v-.31l-.46-.03c-.17-.01-.29-.05-.33-.14-.04-.11-.05-.32-.05-.59v-2.16Z"/>
        <path class="cls-1" d="m68.38,144.96c-.3,0-.56.27-.56.57s.27.56.56.56.57-.26.57-.56-.28-.57-.57-.57m.48,2.27l-.09-.04c-.38.16-.99.36-1.59.42v.29h.38c.21,0,.32.03.38.11.05.08.07.3.07.63v2.29c0,.28,0,.48-.05.59-.04.09-.16.13-.33.14l-.47.03v.31c.37,0,.78-.03,1.28-.03s.9.02,1.27.03v-.31l-.47-.03c-.17,0-.29-.05-.33-.14-.04-.11-.05-.32-.05-.59v-3.7Z"/>
        <path class="cls-1" d="m74.09,148.28c.14-.31.31-.66.57-.68l.32-.02v-.28c-.32,0-.64.03-.96.03s-.64-.02-.96-.03v.28l.42.02c.31,0,.33.3.05,1.01l-.43,1.08c-.19.48-.42.96-.63,1.43l-1.21-2.94c-.17-.43-.1-.57.16-.58l.5-.02v-.28c-.4,0-.79.03-1.18.03s-.8-.02-1.19-.03v.28l.34.02c.19,0,.25.19.32.34l1.75,4.11h.51c.14-.35.25-.73.42-1.11l1.21-2.65Z"/>
        <path class="cls-1" d="m77.44,147.19c-.35,0-.64.11-1,.28-.22.1-.44.26-.63.41-.47.37-.74.96-.74,1.95,0,1.38.82,2.36,2.36,2.36.69,0,1.56-.45,1.63-.57l.21-.35-.13-.1c-.39.23-.77.48-1.26.48-1.26,0-1.85-.82-1.85-2.01h1.49c.61,0,1.23-.04,1.85-.14.02-.14.02-.29.02-.43,0-1.15-.83-1.87-1.94-1.87m-.05.34c.74,0,1.08.78,1.08,1.73-.73.04-1.59.06-2.43-.03-.05-1.11.56-1.69,1.34-1.69"/>
        <path class="cls-1" d="m80.45,150.93c0,.27,0,.48-.05.59-.04.09-.15.13-.33.14l-.47.03v.31c.36,0,.77-.03,1.27-.03s.91.02,1.44.03v-.31l-.53-.03c-.23-.01-.39-.05-.43-.14-.04-.11-.05-.32-.05-.59v-1.75c0-.65.45-1.12.9-1.12.37,0,.58.22.69.47h.21l.09-1.23c-.08-.05-.3-.1-.47-.1-.26,0-.61.12-.86.42l-.55.65h-.02v-1.03l-.09-.04c-.38.16-.99.36-1.59.42v.29h.38c.21,0,.32.03.38.11.05.08.07.31.07.63v2.29Z"/>
        <path class="cls-1" d="m83.53,150.51c0,.48-.01.97-.11,1.42.5.17.94.24,1.43.24,1.13,0,2.25-.59,2.25-1.71,0-.79-.57-1.1-1.78-1.31-.77-.13-1.11-.37-1.11-.81,0-.35.13-.83,1-.83.58,0,1.18.31,1.18.84v.23h.29c.01-.41.02-.79.05-1.15-.4-.14-.84-.26-1.32-.26-.96,0-1.92.39-1.92,1.49,0,.62.38.93.87,1.11.49.18,1.05.3,1.5.41.32.08.49.35.49.67,0,.55-.55.93-1.19.93-.59,0-1.32-.24-1.32-.87v-.42h-.31Z"/>
        <path class="cls-1" d="m88.57,144.96c-.3,0-.56.27-.56.57s.26.56.56.56.57-.26.57-.56-.28-.57-.57-.57m.48,2.27l-.09-.04c-.38.16-.99.36-1.59.42v.29h.37c.22,0,.32.03.38.11.05.08.07.3.07.63v2.29c0,.28-.01.48-.05.59-.04.09-.15.13-.33.14l-.47.03v.31c.37,0,.77-.03,1.27-.03s.91.02,1.28.03v-.31l-.47-.03c-.17,0-.29-.05-.33-.14-.04-.11-.05-.32-.05-.59v-3.7Z"/>
        <path class="cls-1" d="m90.79,148.07v2.94c0,.83.46,1.08,1,1.08.21,0,.57-.02.66-.12l.49-.54-.13-.17c-.14.08-.33.2-.6.2-.43,0-.56-.24-.56-.7v-2.67h1.31l.09-.55-1.39.06v-.39c0-.43.05-1,.11-1.45l-.12-.12c-.17.12-.5.28-.87.39.03.27.04.54.04.8v.72l-.8.36v.21l.78-.04Z"/>
        <path class="cls-1" d="m95.84,151.09l-1.17-2.84c-.22-.55-.04-.65.24-.66l.39-.02v-.28c-.4,0-.79.03-1.18.03s-.78-.02-1.18-.03v.28l.18.02c.23.02.37.11.53.5l1.68,4.12-.23.62c-.19.47-.52,1.3-1.11,1.34-.14,0-.4-.11-.52-.24h-.13l-.25.77c.11.07.34.15.51.15.86,0,1.23-.51,1.55-1.25l2.07-4.77c.39-.9.61-1.22.86-1.23l.29-.02v-.28c-.33,0-.64.03-.97.03s-.64-.02-.97-.03v.28l.27.02c.37.03.52.15.37.52l-1.21,2.98Z"/>
        <path class="cls-1" d="m102.4,147.52c.98,0,1.6,1.12,1.6,2.44,0,.95-.4,1.88-1.33,1.88-1.31,0-1.69-1.41-1.69-2.49,0-.95.33-1.83,1.42-1.83m-.12,4.65c1.56,0,2.67-1.1,2.67-2.66,0-1.31-1.01-2.33-2.31-2.33-1.64,0-2.6,1.07-2.6,2.6,0,1.41.96,2.43,2.24,2.39"/>
        <path class="cls-1" d="m108.45,144.66c-.14-.06-.31-.11-.46-.11-.28,0-.65.12-.92.43l-.59.67c-.3.34-.43.8-.43,1.47v.43l-.7.32v.23l.7-.04v2.88c0,.27-.01.48-.05.59-.04.09-.15.13-.33.14l-.47.03v.31c.37-.01.77-.03,1.27-.03s.91.02,1.27.03v-.31l-.47-.03c-.18-.01-.29-.05-.33-.14-.04-.11-.05-.32-.05-.59v-2.88h1.26l.07-.54-1.34.04v-.87c0-1.16.11-1.46.75-1.46.25,0,.49.11.67.28l.12-.06v-.79Z"/>
        <path class="cls-1" d="m117.56,146.17c0-.39.02-.65.09-.76.06-.1.18-.14.43-.15l.49-.03v-.31c-.53.02-1.01.03-1.48.03-.5,0-.98,0-1.51-.03v.31l.49.03c.25,0,.37.05.43.15.07.11.09.38.09.76v1.81c-.13.01-.4.02-.85.02h-2.39c-.45,0-.72-.01-.84-.02v-1.81c0-.39.02-.65.09-.76.06-.1.18-.14.43-.15l.49-.03v-.31c-.53.02-1.01.03-1.48.03-.5,0-.98,0-1.51-.03v.31l.49.03c.25,0,.37.05.43.15.07.11.09.38.09.76v4.57c0,.39-.02.65-.09.76-.06.1-.18.14-.43.15l-.49.03v.31c.53-.02,1.01-.03,1.51-.03.47,0,.95,0,1.48.03v-.31l-.49-.03c-.24-.01-.36-.05-.43-.15-.07-.11-.09-.38-.09-.76v-2.27c.12,0,.4-.02.84-.02h2.39c.45,0,.72.01.85.02v2.27c0,.39-.02.65-.09.76-.06.1-.18.14-.43.15l-.49.03v.31c.53-.02,1.01-.03,1.51-.03s.95,0,1.48.03v-.31l-.49-.03c-.25-.01-.37-.05-.43-.15-.07-.11-.09-.38-.09-.76v-4.57Z"/>
        <path class="cls-1" d="m121.17,147.52c.98,0,1.6,1.12,1.6,2.44,0,.95-.4,1.88-1.33,1.88-1.31,0-1.7-1.41-1.7-2.49,0-.95.34-1.83,1.42-1.83m-.12,4.65c1.56,0,2.67-1.1,2.67-2.66,0-1.31-1.01-2.33-2.32-2.33-1.64,0-2.6,1.07-2.6,2.6,0,1.41.96,2.43,2.24,2.39"/>
        <path class="cls-1" d="m125.5,148.77c0-.42.63-.96,1.25-.96.69,0,1.17.45,1.17,1.29v2.9c.23,0,.53-.03.82-.03s.58.02.84.03v-.31l-.42-.03c-.17-.01-.29-.05-.33-.14-.04-.11-.05-.32-.05-.59v-1.97c0-1.11-.49-1.77-1.68-1.77-.41,0-.6.06-.83.26l-.76.65h-.02v-.87l-.09-.04c-.38.16-.99.36-1.59.42v.29h.38c.22,0,.32.03.38.11.05.08.07.3.07.63v2.29c0,.27-.01.48-.05.59-.04.09-.16.13-.33.14l-.46.03v.31c.36,0,.76-.03,1.27-.03s.91.02,1.27.03v-.31l-.46-.03c-.17-.01-.29-.05-.33-.14-.04-.11-.05-.32-.05-.59v-2.16Z"/>
        <path class="cls-1" d="m131.96,154.54c-.82,0-1.49-.44-1.49-1.32,0-.64.57-1.04.86-1.07.46-.04.82-.04,1.08-.04,1.15,0,1.44.32,1.44.92,0,.81-.76,1.51-1.89,1.51m1.02-5.53c0,.62-.44,1.08-1.04,1.08-.65,0-1.15-.46-1.15-1.36,0-.67.34-1.2,1.02-1.2.85,0,1.17.73,1.17,1.48m1.68-.9l.26-.42-.04-.12-1.45.04c-.33-.3-.8-.43-1.24-.43-.39,0-1.01.13-1.48.44-.46.29-.77.73-.77,1.39,0,1.06.88,1.36,1.2,1.37v.02l-.79.6c-.09.12-.15.28-.15.43,0,.29.22.48.67.6l-.89.48c-.22.19-.29.52-.29.81,0,.91.96,1.53,2.19,1.53,1.72,0,2.76-1.11,2.76-2.19,0-.51-.29-1.26-1.2-1.26h-1.63c-.31,0-.77-.02-.77-.41,0-.22.33-.43.47-.57.07.01.15.02.21.02.47,0,.98-.17,1.43-.49.41-.28.69-.72.69-1.27,0-.19-.03-.39-.11-.57h.94Z"/>
        <path class="cls-1" d="m138.88,148.65l.1-.07,3.55,3.42c.32,0,.57-.03.81-.03s.48.02.68.03v-.31l-.22-.02c-.18-.02-.38-.18-.63-.42l-3.37-3.18,2.71-2.45c.25-.23.53-.38.8-.39l.43-.02v-.31c-.24.01-.53.03-.81.03s-.58-.02-.91-.03v.28c0,.07-.14.25-.3.4l-2.83,2.76v-2.18c0-.38.02-.65.09-.76.06-.1.18-.14.43-.15l.49-.03v-.31c-.53.02-1.01.03-1.48.03-.5,0-.98,0-1.51-.03v.31l.49.03c.25,0,.37.05.43.15.07.11.09.38.09.76v4.57c0,.39-.02.65-.09.76-.06.1-.18.14-.43.15l-.49.03v.31c.53-.02,1.01-.03,1.51-.03.47,0,.95,0,1.48.03v-.31l-.49-.03c-.24-.01-.37-.05-.43-.15-.07-.11-.09-.38-.09-.76v-2.09Z"/>
        <path class="cls-1" d="m146.23,147.52c.98,0,1.6,1.12,1.6,2.44,0,.95-.4,1.88-1.33,1.88-1.31,0-1.7-1.41-1.7-2.49,0-.95.34-1.83,1.42-1.83m-.12,4.65c1.56,0,2.67-1.1,2.67-2.66,0-1.31-1.01-2.33-2.32-2.33-1.64,0-2.6,1.07-2.6,2.6,0,1.41.96,2.43,2.24,2.39"/>
        <path class="cls-1" d="m150.55,148.77c0-.42.63-.96,1.25-.96.7,0,1.17.45,1.17,1.29v2.9c.23,0,.53-.03.82-.03s.58.02.84.03v-.31l-.42-.03c-.17-.01-.29-.05-.33-.14-.04-.11-.05-.32-.05-.59v-1.97c0-1.11-.49-1.77-1.68-1.77-.41,0-.6.06-.83.26l-.76.65h-.02v-.87l-.09-.04c-.38.16-.99.36-1.59.42v.29h.38c.21,0,.32.03.38.11.05.08.07.3.07.63v2.29c0,.27,0,.48-.05.59-.04.09-.16.13-.33.14l-.46.03v.31c.36,0,.76-.03,1.27-.03s.91.02,1.27.03v-.31l-.46-.03c-.17-.01-.29-.05-.33-.14-.04-.11-.05-.32-.05-.59v-2.16Z"/>
        <path class="cls-1" d="m157.02,154.54c-.81,0-1.49-.44-1.49-1.32,0-.64.57-1.04.86-1.07.46-.04.82-.04,1.08-.04,1.15,0,1.44.32,1.44.92,0,.81-.77,1.51-1.89,1.51m1.02-5.53c0,.62-.44,1.08-1.04,1.08-.65,0-1.15-.46-1.15-1.36,0-.67.34-1.2,1.02-1.2.85,0,1.17.73,1.17,1.48m1.68-.9l.26-.42-.04-.12-1.45.04c-.32-.3-.79-.43-1.24-.43-.39,0-1.01.13-1.48.44-.46.29-.78.73-.78,1.39,0,1.06.88,1.36,1.2,1.37v.02l-.79.6c-.09.12-.15.28-.15.43,0,.29.22.48.67.6l-.89.48c-.21.19-.28.52-.28.81,0,.91.96,1.53,2.19,1.53,1.72,0,2.77-1.11,2.77-2.19,0-.51-.29-1.26-1.21-1.26h-1.63c-.3,0-.77-.02-.77-.41,0-.22.33-.43.47-.57.07.01.14.02.21.02.47,0,.98-.17,1.43-.49.41-.28.68-.72.68-1.27,0-.19-.03-.39-.11-.57h.94Z"/>
        <path class="cls-1" d="m160.51,153.39c.25-.42.43-.75.54-.98.11-.23.19-.46.25-.69.03-.11.07-.36.12-.74l.54-.13c.07-.02.23-.08.48-.17l.13.14c-.41.96-.92,1.8-1.51,2.5l-.43.2-.12-.13Z"/>
        <g>
          <path class="cls-1" d="m170.36,150.93c0,.27,0,.48-.05.59-.04.09-.15.13-.32.14l-.46.03v.31c.36,0,.77-.03,1.27-.03s.91.02,1.26.03v-.31l-.46-.03c-.18-.01-.29-.05-.32-.14-.04-.11-.05-.32-.05-.59v-2.16c0-.42.63-.96,1.26-.96.7,0,1.17.45,1.17,1.29v2.9c.23,0,.53-.03.82-.03s.58.02.84.03v-.31l-.42-.03c-.17-.01-.29-.05-.33-.14-.04-.11-.05-.32-.05-.59v-1.97c0-1.11-.49-1.77-1.69-1.77-.41,0-.6.06-.82.25l-.76.65h-.02v-3.45l-.09-.08c-.51.2-1.05.3-1.59.38v.29h.57c.22,0,.25.18.25.42v5.28Z"/>
          <path class="cls-1" d="m177.55,147.19c-.35,0-.64.11-1,.28-.22.1-.44.26-.63.41-.47.37-.74.96-.74,1.95,0,1.38.82,2.36,2.36,2.36.69,0,1.56-.45,1.63-.57l.2-.35-.13-.1c-.39.23-.77.48-1.26.48-1.26,0-1.85-.82-1.85-2.01h1.49c.61,0,1.24-.04,1.85-.14.02-.14.02-.29.02-.43,0-1.15-.83-1.87-1.94-1.87m-.05.34c.74,0,1.08.78,1.08,1.73-.73.04-1.59.06-2.43-.03-.05-1.11.56-1.69,1.34-1.69"/>
          <path class="cls-1" d="m181.15,148.77c0-.42.63-.96,1.25-.96.69,0,1.17.45,1.17,1.29v2.9c.23,0,.53-.03.81-.03s.58.02.84.03v-.31l-.42-.03c-.17-.01-.29-.05-.33-.14-.04-.11-.05-.32-.05-.59v-1.97c0-1.11-.49-1.77-1.68-1.77-.41,0-.6.06-.82.26l-.76.65h-.02v-.87l-.09-.04c-.37.16-.99.36-1.59.42v.29h.38c.21,0,.32.03.38.11.05.08.07.3.07.63v2.29c0,.27-.01.48-.05.59-.04.09-.15.13-.33.14l-.46.03v.31c.36,0,.76-.03,1.26-.03s.91.02,1.27.03v-.31l-.46-.03c-.17-.01-.28-.05-.32-.14-.04-.11-.05-.32-.05-.59v-2.16Z"/>
          <path class="cls-1" d="m190.96,150.93c0,.27,0,.48-.05.59-.04.09-.15.13-.32.14l-.46.03v.31c.36,0,.77-.03,1.27-.03s.91.02,1.27.03v-.31l-.46-.03c-.18-.01-.29-.05-.32-.14-.04-.11-.05-.32-.05-.59v-2.16c0-.42.63-.96,1.25-.96.7,0,1.17.45,1.17,1.29v2.9c.23,0,.53-.03.81-.03s.58.02.84.03v-.31l-.42-.03c-.18-.01-.29-.05-.33-.14-.04-.11-.05-.32-.05-.59v-1.97c0-1.11-.49-1.77-1.69-1.77-.41,0-.6.06-.82.25l-.76.65h-.02v-3.45l-.09-.08c-.51.2-1.05.3-1.59.38v.29h.57c.22,0,.25.18.25.42v5.28Z"/>
          <path class="cls-1" d="m198.15,147.19c-.35,0-.64.11-1,.28-.22.1-.44.26-.63.41-.47.37-.74.96-.74,1.95,0,1.38.82,2.36,2.36,2.36.69,0,1.56-.45,1.63-.57l.2-.35-.13-.1c-.39.23-.77.48-1.26.48-1.26,0-1.85-.82-1.85-2.01h1.49c.61,0,1.23-.04,1.85-.14.02-.14.02-.29.02-.43,0-1.15-.82-1.87-1.94-1.87m-.05.34c.74,0,1.08.78,1.08,1.73-.73.04-1.59.06-2.43-.03-.05-1.11.56-1.69,1.34-1.69"/>
          <path class="cls-1" d="m201.75,148.77c0-.42.63-.96,1.25-.96.69,0,1.17.45,1.17,1.29v2.9c.23,0,.53-.03.81-.03s.58.02.84.03v-.31l-.42-.03c-.17-.01-.29-.05-.33-.14-.04-.11-.05-.32-.05-.59v-1.97c0-1.11-.49-1.77-1.68-1.77-.41,0-.6.06-.83.26l-.76.65h-.02v-.87l-.09-.04c-.37.16-.99.36-1.59.42v.29h.38c.21,0,.32.03.38.11.05.08.07.3.07.63v2.29c0,.27-.01.48-.05.59-.04.09-.15.13-.33.14l-.46.03v.31c.36,0,.77-.03,1.27-.03s.91.02,1.27.03v-.31l-.46-.03c-.17-.01-.28-.05-.33-.14-.04-.11-.05-.32-.05-.59v-2.16Z"/>
          <path class="cls-1" d="m164.92,151.78c.05-.32.08-.84.09-1.56h.34c.02.49.04.77.08.86.04.09.13.18.28.28.15.1.34.19.59.27.25.08.49.12.72.12.34,0,.65-.08.93-.23.28-.16.49-.36.62-.61.13-.25.2-.52.2-.81,0-.22-.03-.41-.1-.57-.06-.16-.16-.29-.3-.39-.13-.1-.3-.17-.5-.21-.12-.02-.37-.05-.74-.1-.37-.05-.69-.1-.95-.16-.35-.11-.6-.23-.77-.37-.16-.14-.3-.33-.4-.56-.1-.23-.15-.48-.15-.75,0-.39.1-.76.31-1.11.2-.35.51-.62.91-.81.4-.19.84-.29,1.31-.29.28,0,.59.04.93.11.33.08.65.19.94.33-.05.21-.08.41-.1.59-.02.18-.03.45-.04.8h-.33c-.01-.51-.03-.79-.05-.84-.08-.12-.2-.23-.34-.33-.34-.19-.71-.29-1.08-.29-.49,0-.87.15-1.16.44-.29.29-.43.68-.43,1.15,0,.28.05.5.15.66.1.16.29.28.56.37.18.06.48.12.9.18.42.06.79.12,1.13.18.31.09.54.2.7.33.15.13.27.3.37.51.1.21.14.45.14.73,0,.66-.28,1.24-.83,1.74-.55.49-1.26.74-2.14.74-.66,0-1.26-.13-1.8-.39Z"/>
          <path class="cls-1" d="m185.46,152.02l-.05-.23c.34-.37.61-.66.8-.89.44-.53,1.03-1.26,1.78-2.19.09-.12.33-.45.72-.99h-1.16c-.16,0-.42.01-.77.03-.22.01-.35.03-.39.05-.02.01-.04.03-.05.05-.02.03-.04.11-.07.24l-.1.58h-.29c.03-.58.05-.9.05-.96,0-.08,0-.19-.01-.34l.04-.03c1.24.02,2.23.03,2.99.03.36,0,.68-.01.96-.03v.26c-.23.24-.62.71-1.18,1.43-1.08,1.35-1.75,2.22-2.02,2.6h.35c.28,0,.68,0,1.19-.02.51-.01.88-.04,1.11-.09.07-.02.12-.03.13-.05.01,0,.03-.03.04-.06.07-.21.13-.5.19-.85h.31c-.05.39-.08.63-.09.71,0,.05-.02.28-.05.7-.19.04-.44.06-.73.06l-2.17-.04-1.49.04Z"/>
        </g>
      </g>
      <g>
        <path class="cls-1" d="m41.09,137.66c-.07-.07-.15-.15-.15-.15-.15-.16-.31-.24-.47-.24-.19,0-.55.06-1.09.18-.46.1-.79.16-1.01.18,0-.17-.01-.98-.01-1.13.42,0,.89-.04,1.39-.13.85-.14.87-.16.9-.2,0,0,.05-.12.05-.12,0-.12-.09-.22-.26-.31-.15-.08-.31-.12-.47-.12-.19,0-.42.05-.71.16l-.55.18s-.21.05-.35.08c0-.09,0-.18,0-.28,0-.24-.01-.51-.03-.8.28,0,.56-.03.84-.09.77-.17,1.3-.25,1.56-.25.1,0,.17.03.24.08.06.05.09.11.1.18l.05.7.04,1.02c0,.65-.03.93-.07,1.06m.69-3.6c-.36-.16-.63-.23-.81-.23-.03,0-.67.23-.67.23-.5.15-.96.26-1.37.31l-.67.09-.23-.05-.39-.06c-.25,0-.27.14-.27.2,0,.04.18.46.18.46.05.14.09.36.11.64l.04.99c0,.39-.03.67-.07.84l-.07.46c0,.27.05.53.16.78.13.3.23.41.33.41.11,0,.2-.09.29-1.02.08,0,.16.02.16.02l.91-.1.78-.1c.11,0,.2.03.26.1.08.08.15.2.22.34l.21.55.17.5h.05s.19.05.19.05l.04-.03c.52-.42.78-1.16.78-2.19l-.04-1.5c0-.65.07-.85.12-.91.14-.19.16-.26.16-.31,0-.16-.18-.3-.58-.47m4.28-.32c-.04-.05-.11-.08-.21-.08-1.18-.14-2.2-.41-3.01-.8-.76-.37-1.57-.93-2.4-1.63.49-.06,1.07-.1,1.75-.11,1.08-.02,1.3-.05,1.37-.07.18-.05.22-.16.22-.23,0-.18-.1-.32-.3-.43-.18-.1-.38-.15-.6-.15-.17,0-.53.07-1.1.21,0,0-1.22.24-1.61.32.03-.18.09-.58.09-.58,0,0,.06-.09.06-.09h0l.08-.2c0-.16-.17-.31-.52-.45.81-.2,1.52-.35,2.11-.45.16,0,.17-.12.17-.14,0-.08-.04-.19-.54-.55-.35-.26-.61-.38-.79-.38-.03,0-.11,0-.16.06,0,.01-.07.22-.09.29-.31.29-1.27.75-2.87,1.37l-.11.05.14.19h.05c.48-.03.99-.12,1.51-.27h0s.13.62.13.62c.05.21.07.41.07.61h0c-.15.04-1.72.28-1.72.28-.81.14-1.49.24-2.03.27l-.21.02.15.15c.31.3.58.45.82.45.06,0,.22-.02.85-.15,0,0,.81-.17,1.24-.26-.99,1.4-2.4,2.54-4.23,3.36l-.06.02v.12s0,.12.16.12c.3,0,.68-.1,1.17-.29.48-.2.91-.42,1.28-.66.37-.25.72-.52,1.05-.83.33-.31.64-.63.92-.97,0,0,.41-.54.64-.84-.02.37-.06.71-.14,1.01-.11.38-.16.61-.16.73,0,.21.09.45.26.71h0s.04.04.04.04l.03.02s.13.05.13.05c.12,0,.21-.14.33-.51.1-.3.15-.66.15-1.08,0,0-.03-.7-.05-1.08.26.31.74.81,1.49,1.51.93.88,1.56,1.31,1.91,1.31s1.19-.13,2.49-.39h.06s.02-.07.02-.07c0-.02,0-.04,0-.06,0-.05-.02-.08-.03-.1"/>
        <path class="cls-1" d="m53.23,133.25c.16,0,.43-.07.43-.51,0-.27-.11-.51-.32-.71-.2-.2-.64-.33-1.33-.39l-.16-.02.07.15c.47,1,.9,1.48,1.31,1.48m1.15-2.41c.14,0,.38-.06.38-.45,0-.32-.15-.58-.44-.78-.28-.19-.64-.29-1.09-.29l-.44.05.11.13c.92,1.2,1.28,1.34,1.47,1.34m2.58,1.33c0-.17-.02-1.04-.02-1.16.13-.02,1.24-.24,1.47-.28-.05.22-.26,1.14-.28,1.24-.1.02-.99.18-1.16.21m-.46,2.71c.17,0,.41-.03.74-.1l.72-.12s.04,0,.05.04c0,0,.03.29.03.29l-.04.42-.09.25s-.05.06-.34.13l-.58.14s-.32.04-.49.06v-1.11Zm-3.32,1.92s.05-.04.08-.07c0,0,.01,0,.02,0h0s-.1.07-.1.07Zm10.12-1.56c-1.31-.4-2.26-.76-2.81-1.09-.52-.31-1.25-.87-2.16-1.64.62-.1,1.23-.17,1.82-.18l1.19-.04c.24-.02.29-.12.29-.2,0-.11-.09-.23-.28-.39-.18-.15-.38-.23-.62-.23-.42,0-1.11.13-2.01.37.07-.24.33-1.13.36-1.23.09-.01.37-.06.37-.06l.69-.07c.25-.02.59-.08.59-.32,0-.16-.1-.36-.59-.36-.16,0-.43.05-.79.13.12-.27.59-1.3.59-1.3l-.02-.03c-.05-.13-.23-.26-.56-.41-.31-.14-.54-.2-.69-.2h-.03l-.03.02c-.09.07-.1.15-.1.21l.1.32c.06.13.09.3.09.51,0,.13-.05.5-.15,1.07-.11.02-1.4.28-1.59.31,0-.15.03-.52.03-.52l.06-.73-.04-.02c-.35-.24-.69-.37-1.04-.37-.23,0-.24.14-.24.19,0,.03,0,.03.2.39.12.21.2.45.25.75,0,0,.07.31.11.48-.16.03-1.41.28-1.41.28l.14.13c.2.18.44.27.71.27.13,0,.34-.04.61-.12.02.16.13.98.15,1.12-.83.16-1.62.28-2.34.35h-.16s.1.15.1.15c.19.26.48.4.87.4.22,0,.46-.04.72-.11,0,0,.25-.06.43-.1-.47,1.33-1.47,2.58-3,3.7l-.05.03c.05-.14.11-.3.18-.46l1.18-2.51h-.28l-.82,1.04c-.36.48-.62.79-.76.92-.14.11-.27.17-.41.18-.22.01-.33.08-.33.2,0,.18.07.49.22.96.16.52.32.75.52.75.25,0,.31-.37.33-.49.03-.15.08-.33.14-.53l.16.12h.05c1.04-.31,1.89-.97,2.55-1.93.06.33.1.7.1,1.13l-.04,1.05c0,.39.14.76.42,1.1.29.35.89.51,1.83.51.58,0,1.15-.06,1.68-.19.58-.14.86-.34.86-.61,0-.13-.1-.24-.29-.32l-.39-.11c-.11,0-.23.04-.38.12-.11.06-.34.13-.68.2-.34.07-.7.1-1.09.1-.41,0-.73-.04-.93-.12-.18-.08-.29-.24-.32-.51,0,0-.04-.54-.06-.76.11,0,.25.02.25.02.13,0,.47-.05,1.03-.14.88-.15.94-.23.98-.27l.09-.22c0-.16-.15-.25-.27-.29.06-.13.22-.48.22-.48.05-.12.14-.21.25-.29.17-.12.23-.19.23-.27,0-.14-.15-.28-.48-.47-.31-.18-.51-.26-.65-.26-.04,0-.57.24-.57.24l-.6.2c-.22.06-.44.09-.63.09,0,0-.09-.02-.18-.03.13-.17.43-.54.43-.54.46-.59.46-.61.46-.65,0-.08-.07-.18-.33-.38.29-.06.97-.19,1.05-.21.07.08,1.27,1.42,1.27,1.42.45.5.84.9,1.19,1.2.36.31.6.49.72.54,0,0,.42.07.42.07.13,0,.49-.04,1.09-.13.92-.14.96-.2.96-.31,0-.04-.02-.1-.12-.13"/>
        <path class="cls-1" d="m72.74,131.47v2.2c-.15.01-1.84.18-2.02.19,0-.81-.05-1.52-.14-2.1.16-.02,1.97-.27,2.16-.3m3.3.07c0,.16-.05.47-.15.94-.09.44-.24.71-.45.82-.21.1-.85.2-1.9.3,0-.19,0-2.09.01-2.24.97-.15,1.66-.23,2.05-.23.25,0,.32.06.35.09.06.07.08.17.08.32m1.05-.79c-.42-.31-.73-.47-.93-.47-.04,0-.1.01-.49.16-.24.1-.95.22-2.1.37.03-.92.1-1.55.18-1.86l.06-.3c0-.19-.13-.36-.42-.52-.26-.15-.57-.25-.92-.31h-.02s-.02,0-.02,0c-.2.08-.25.21-.25.3l.02.12c.18.26.31.55.4.9.09.35.14.95.14,1.78-.89.14-1.53.21-1.87.21l-.83-.08-.87-.09-.02.02s-.1.09-.1.2l.05.19c.19.19.33.4.44.66.11.26.21.84.3,1.7.09.96.29,1.41.62,1.41.16,0,.23-.21.27-.75.14-.01,1.84-.16,2.02-.18,0,.19-.03,1.89-.03,1.89l-.07,1.98c0,.16.05.49.15,1.01.14.71.23.84.35.84h.04l.06-.05c.14-.13.33-.49.33-2.16,0,0-.04-3.12-.05-3.56,1.19-.09,2.07-.14,2.59-.14.16,0,.49,0,.49-.2,0-.18-.09-.39-.41-.49.55-.85.94-1.36,1.15-1.52.33-.24.4-.34.4-.43s-.05-.19-.65-.63"/>
        <path class="cls-1" d="m95.23,137.58c-1.46-.15-2.63-.42-3.5-.82-.84-.39-1.61-.94-2.29-1.63.13-.29.27-.69.41-1.21l.3-1.06c.05-.14.11-.24.17-.3l.14-.25c0-.1-.1-.21-.32-.39-.13-.1-.26-.16-.39-.22,1-.18,2.07-.33,3.18-.45.24-.14.34-.27.34-.39,0-.15-.13-.28-.39-.39-.24-.1-.49-.16-.76-.16-.43,0-.85.12-1.28.35-1.5.64-3.4.99-5.64,1.02h-.17s.1.15.1.15c.24.34.6.52,1.09.52.52,0,1.52-.18,2.97-.53-.01.03-.04.05-.04.09,0,.01.04.46.04.46,0,.44-.15,1.15-.43,2.07-.16-.18-.64-.74-.64-.74-.34-.44-.61-.72-.81-.84-.2-.13-.4-.19-.6-.19-.14,0-.57,0-.57.27l.04.16h.03c.75.34,1.51,1.01,2.26,1.97-.77,1.01-2.23,1.68-4.36,1.98l-.02.19c.36.11.68.17.98.17.4,0,1.03-.13,1.88-.38.82-.24,1.51-.69,2.07-1.3.65.74,1.28,1.36,1.87,1.84.64.51,1.09.76,1.39.76.23,0,.71-.08,1.47-.25l1.48-.29v-.19Zm-6.6-8.1c.57.46.99.68,1.29.68.18,0,.39-.11.39-.65,0-.22-.12-.42-.37-.62-.23-.18-.49-.29-.75-.33-.25-.04-.67-.07-1.29-.08h-.1s-.02.11-.02.11c0,.09.06.25.85.89"/>
        <path class="cls-1" d="m109.67,137.3c-.55-.13-1.09-.37-1.59-.7-.49-.34-.98-.77-1.43-1.3-.45-.52-.89-1.15-1.31-1.86,0-.05.03-.52.03-.64.5-.1,1.21-.19,2.13-.27l1.69-.17c.28-.05.32-.19.32-.28,0-.15-.14-.29-.44-.45-.27-.15-.6-.22-.98-.22-.03,0-.09,0-.92.31-.5.18-1.1.32-1.77.4.03-1.21.09-2.01.19-2.35.12-.38.18-.62.18-.75,0-.18-.08-.32-.22-.41-.12-.09-.32-.18-.58-.26-.26-.08-.53-.13-.79-.13-.16,0-.26.09-.26.23,0,.07.04.14.12.21.34.4.52,1.16.52,2.24,0,0-.03,1.23-.04,1.37-.15.02-3.29.45-3.29.45l.1.13c.24.31.6.46,1.08.46.28,0,.68-.06,1.19-.18,0,0,.63-.14.9-.19-.2,2.4-1.42,4.05-3.63,4.9l.03.18c.72.04,1.54-.28,2.42-.94.84-.62,1.45-1.59,1.83-2.85.53.95,1.12,1.86,1.79,2.7.97,1.22,1.36,1.37,1.57,1.37.7,0,1.72-.12,3.04-.36v-.18s-1.9-.44-1.9-.44Z"/>
        <path class="cls-1" d="m126.44,135.19c-.24-.16-.54-.24-.89-.24-.25,0-.61.05-1.11.16-.48.1-.83.16-1.04.16,0,0-.23.02-.23.02-.03,0-.05-.02-.07-.04.42-.37.86-.69,1.31-.96.28-.11.35-.26.35-.39,0-.02,0-.05,0-.07v-.03s-.03-.02-.03-.02c-.46-.37-.89-.56-1.26-.56-.03,0-.97.31-.97.31l-1,.23c-.34.05-.69.08-1.05.07h-.21s.14.16.14.16c.28.31.61.46.99.45.02,0,1.81-.56,1.89-.59h.16s.03.08.03.13c0,.06-.07.27-.61.95-.2-.15-.41-.24-.64-.24s-.24.12-.24.18c0,.06.04.13.26.32.09.08.14.14.18.19-1.95.25-3.35.4-4.15.44h-.09s-.01.11-.01.11c0,.07.04.18.36.4.24.16.44.24.62.24.08,0,.33-.03,1.54-.3.84-.19,1.46-.29,1.89-.32.06.34.09.69.09,1.07,0,.96-.19,1.45-.55,1.45-.17,0-.57-.07-1.22-.21l-.07.17c.68.43,1.1.84,1.27,1.21l.04.08.08-.04c.79-.34,1.19-1.15,1.19-2.42,0-.36-.05-.82-.13-1.37.18,0,1.5-.05,1.5-.05l1.79.06c.26,0,.29-.16.29-.23,0-.15-.13-.31-.39-.48m1.3-2.85c-.29-.3-.54-.44-.75-.44l-.58.12c-.27.06-.64.1-1.05.11.04-.21.34-1.56.34-1.56.16-.71.25-.96.29-1.05.07-.12.15-.21.23-.27.13-.1.19-.17.19-.24s-.04-.17-.52-.46c-.46-.29-.55-.31-.6-.31-.03,0-.06,0-.45.17-.23.1-.56.19-.99.28l-.2.04.16.12c.21.16.41.24.61.24l.35-.05.3-.05s.15,0,.15.26c0,.14-.04.29-.09.46-.33,0-.78.04-1.33.12l-.16.02.09.13c.14.19.34.28.61.28l.64-.05s.03,0,.06,0c-.03.14-.11.55-.14.65-.12.01-1.32.12-1.32.12l.03.11c.04.16.18.34.55.34l.41-.04s.14-.01.24-.03c-.03.17-.12.71-.13.82-.13.01-3.71.42-3.88.44-.02-.13-.08-.62-.1-.75.12-.03.39-.09.39-.09l.46-.12.05-.04.05-.03c.07-.04.1-.1.1-.16,0-.02,0-.05-.02-.08v-.02s-.03-.02-.03-.02c-.1-.08-.22-.12-.34-.12-.11,0-.26.04-.46.13-.15.06-.24.08-.3.1-.02-.13-.09-.52-.11-.64.11-.03.44-.14.44-.14.22-.07.51-.18.51-.39,0-.08-.03-.27-.33-.27-.13,0-.29.05-.49.14,0,0-.16.06-.26.09-.02-.11-.05-.27-.05-.27,0,0-.03-.28-.03-.37.09-.05,1.02-.61,1.02-.61v-.06c-.02-.15-.12-.28-.32-.39-.17-.1-.34-.15-.5-.15-.24,0-.27.13-.27.19,0,.27-.11.53-.32.77-.55,0-.77.07-.77.25l.14.22c.32.29.64,1.29.94,2.94-.16.03-1.16.22-1.27.25-.19-.32-.38-.52-.57-.56l-.12-.03v.12c.03.47-.05.85-.22,1.1-.19.3-.28.53-.28.71,0,.44.22.51.36.51.19,0,.39-.15.62-.46.2-.27.3-.59.31-.94.44-.11,1.6-.28,3.49-.49,1.97-.22,3.15-.34,3.52-.34l.45.02.09.02s-.05.19-.58.69l.09.16.97-.27.42-.03c.32,0,.69-.03.69-.27,0-.06-.03-.15-.43-.56m-6.5.1l.27-.05c.32-.06.72-.34,1.21-.81.1.1.48.5.48.5l.27.06v-.08s.05-.21.05-.21c0-.2-.16-.44-.45-.72.05-.07.14-.19.14-.19.1-.13.16-.27.16-.4,0-.02,0-.04,0-.06v-.04s-.04-.02-.04-.02c-.16-.12-.29-.18-.39-.18s-.24.06-.29.36c-.02.13-.05.2-.06.23-.22-.14-.42-.21-.6-.21l-.41.05.21.14c.24.17.4.31.49.43-.08.1-.37.45-.37.45l-.66.76Zm.67-3.34c.15.11.25.2.32.28-.08.11-.82,1.04-.82,1.04l.27-.07c.37-.09.7-.31.99-.62.06.08.2.23.2.23.15.18.3.29.44.34h.05s.04-.01.04-.01c.12-.09.18-.2.18-.33,0-.22-.17-.47-.48-.75.07-.08.23-.27.23-.27.17-.2.26-.4.26-.59s-.23-.31-.75-.39l-.12-.02.02.12s.01.1.01.14c0,.22-.09.46-.23.7-.1-.05-.33-.16-.33-.16-.22-.12-.42-.17-.59-.16h-.16s.09.14.09.14c.07.1.19.22.4.36"/>
        <g>
          <path class="cls-1" d="m141.88,130.84c.14,0,.37-.06.37-.45,0-.32-.15-.58-.44-.78-.28-.19-.64-.29-1.09-.29l-.44.05.11.13c.92,1.2,1.28,1.34,1.47,1.34Z"/>
          <path class="cls-1" d="m140.73,133.25c.16,0,.42-.07.42-.51,0-.27-.1-.51-.32-.71-.2-.2-.64-.33-1.33-.39l-.16-.02.07.15c.47,1,.9,1.48,1.32,1.48Z"/>
          <path class="cls-1" d="m140.35,137.26c-.03.15-.08.49-.33.49-.2,0-.36-.23-.52-.75-.14-.47-.22-.78-.22-.96,0-.12.11-.19.33-.2.13,0,.27-.07.41-.18.15-.13.4-.44.76-.92l.82-1.04h.28l-1.18,2.51c-.03.06-.05.12-.07.18-.02.04-.03.07-.04.11,0,0-.19.56-.23.76Z"/>
          <g>
            <path class="cls-1" d="m150.69,137.18c-.96-.39-1.67-.73-2.11-1-.43-.29-1.1-.88-1.98-1.76-.17-.16-.33-.3-.48-.4.5-.05.92-.07,1.25-.07.48,0,.94.02,1.36.05.43,0,.64-.08.64-.24,0-.15-.15-.3-.47-.47-.5-.17-.6-.19-.64-.19-.02,0-.07,0-.3.05-.37.09-.92.18-1.63.25-.13,0-.27.02-.4.03.02-.18.04-.35.06-.51.04-.16.07-.28.07-.35,0-.1-.06-.19-.19-.25-.21-.12-.41-.19-.62-.19-.16,0-.25.08-.25.23,0,.05.02.13.05.25.05.12.08.43.09.9-.32.03-.63.07-.92.11-.34.07-.87.11-1.58.13-.2,0-.3.07-.3.18,0,.1.13.2.44.34.28.11.48.16.62.16.06,0,.17-.02.34-.07.39-.1.77-.19,1.12-.25-.04.09-.09.18-.15.28-.42.61-.83,1.12-1.22,1.5-.36.39-.96.87-1.77,1.43-.13.08-.19.14-.19.19,0,.06.03.09.09.09h0c.52-.14.98-.32,1.37-.54.44-.24.84-.55,1.2-.92.34-.34.66-.73.95-1.16v1.39c0,.78-.02,1.28-.06,1.5-.02.16-.03.26-.04.31,0,.15.05.33.16.57.12.23.23.34.34.34s.2-.1.3-.3c.07-.15.11-.34.11-.56,0-.13,0-.31-.03-.55-.02-.41-.03-.92-.03-1.51v-1.71c.07.06.15.13.22.21.25.26.53.57.81.92.94,1.19,1.5,1.84,1.71,2,.19.12.37.18.54.18.28,0,.79-.08,1.5-.25.15-.04.23-.11.23-.19,0-.07-.07-.11-.22-.15Z"/>
            <path class="cls-1" d="m142.7,131.45c.09,0,.18-.05.28-.14.13-.14.27-.4.43-.8.09-.22.15-.41.18-.58.09.03.2.04.33.04.04,0,.12,0,.25-.03,1.5-.36,2.67-.56,3.49-.59.21,0,.21.09.21.12,0,.07-.06.33-.35,1.15h0c0,.07.04.1.09.1h.02c.54-.25,1.02-.42,1.41-.51.29-.04.44-.17.44-.39,0-.16-.18-.39-.56-.7-.33-.28-.56-.41-.69-.41-.04,0-.11,0-.37.09-1.6.34-3,.53-4.17.57h-.1c-.02-.06-.04-.13-.06-.2-.08-.21-.16-.31-.25-.31-.08,0-.14.07-.18.2-.24.79-.46,1.3-.64,1.54-.06.1-.1.23-.1.39,0,.1.03.2.09.29.09.1.18.16.27.16Z"/>
            <path class="cls-1" d="m143.56,131.92c-.22.27-.5.53-.83.79h-.01v.03s.03.08.08.08c.07,0,.2-.04.38-.11.37-.15.7-.38.99-.69.25-.25.47-.56.66-.94.03-.06.11-.15.22-.28h0s.03-.09.03-.12c0-.14-.09-.26-.27-.36-.22-.13-.39-.19-.53-.19-.09,0-.14.05-.14.15l.05.25c0,.17-.05.35-.14.56-.14.32-.3.59-.49.81Z"/>
            <path class="cls-1" d="m146.92,132.34c.32.09.67.13,1.04.13.31,0,.57-.05.76-.14.13-.06.19-.14.19-.26s-.04-.21-.12-.29h0c-.17-.1-.24-.11-.27-.11-.12,0-.28.03-.47.08-.16.02-.28.03-.35.03-.66,0-.98-.19-.98-.58,0-.07.03-.24.08-.51.05-.21.1-.28.13-.31h0c.02-.06.03-.07.03-.07h.01v-.03c0-.13-.11-.24-.31-.32-.18-.08-.33-.12-.45-.12-.17,0-.2.09-.2.14,0,.08,0,.18.03.31.02.12.03.27.03.45v.56c0,.53.28.88.84,1.03Z"/>
          </g>
        </g>
        <g>
          <path class="cls-1" d="m165.66,133.61c0-.19.01-1.93.01-2.07m.02-.56c.03-.92.09-1.55.18-1.86l.06-.3c0-.19-.14-.36-.42-.52-.26-.15-.57-.25-.92-.31h-.02s-.02,0-.02,0c-.2.08-.25.21-.25.3l.02.12c.18.26.31.55.4.9.09.35.14.95.14,1.78v3.12c.01.19-.02,1.89-.02,1.89l-.06,1.83c0,.16.05.49.15,1.01.14.71.23.84.35.84h.04l.06-.04c.14-.13.33-.49.33-2.16,0,0-.04-2.97-.05-3.42l.04-3.18Z"/>
          <path class="cls-1" d="m163.05,130.02c-.23-.08-.43-.12-.6-.12-.12,0-.18.06-.18.18v.04h.02s.04.09.11.26c.08.2.12.62.12,1.24,0,1.31-.02,2.32-.06,2.99-.06.52-.09.98-.09,1.35,0,.13.03.28.09.46.09.23.2.34.31.34.14,0,.25-.09.35-.25.1-.17.15-.39.15-.65v-3.71c0-.41.03-.81.08-1.17.05-.29.08-.48.08-.58,0-.15-.12-.27-.37-.38Z"/>
          <path class="cls-1" d="m159.83,134.47c0-.08-.05-.13-.14-.13-.04,0-.14.02-.54.16-.39.15-.76.28-1.1.4v-2.07l.1-.02c.59-.11.97-.21,1.14-.3.16-.06.23-.14.23-.23,0-.1-.08-.19-.23-.24-.21-.1-.38-.15-.53-.15-.04,0-.1.02-.18.07-.15.06-.33.13-.53.19v-1.05c.1-.9.15-1.16.18-1.21.12-.22.12-.24.12-.25,0-.19-.13-.35-.39-.47-.33-.16-.61-.24-.83-.24-.19,0-.29.1-.29.3,0,.01,0,.04.11.22.08.11.13.26.15.45.06.39.09.76.09,1.09l.03,1.35c-.46.12-.89.2-1.3.25-.25.02-.36.07-.36.16,0,.07.06.14.2.24.12.06.33.1.65.1.17,0,.45-.03.83-.1l.06,2.19c-.64.22-1.18.39-1.61.51-.2.07-.4.11-.61.13-.03,0-.14.02-.14.09,0,.12.11.27.34.48.29.22.52.32.72.32.07,0,.15-.04.24-.11.61-.37,1.14-.67,1.58-.91.83-.43,1.45-.78,1.85-1.03.1-.06.15-.12.15-.18Z"/>
          <path class="cls-1" d="m160.85,130.1c-.28-.17-.5-.25-.69-.25-.25,0-.3.11-.3.2,0,.03.01.09.12.25.09.16.16.36.19.6.03.37.04.76.04,1.16v.82c0,1.11-.13,2.04-.38,2.77-.3.85-.71,1.55-1.21,2.06-.13.08-.19.14-.19.19,0,.04.03.09.14.09h0c.19-.02.51-.21.96-.6.49-.45.88-1.1,1.16-1.94.2-.65.32-1.95.34-3.85,0-.28.03-.54.08-.77.03-.12.04-.22.04-.32,0-.14-.11-.27-.32-.4Z"/>
        </g>
        <path class="cls-1" d="m136.23,138.37c-.67-.57-1.19-1.24-1.56-2.03-.36-.78-.54-1.64-.54-2.57,0-.54.06-1.04.18-1.48.12-.45.28-.85.48-1.21.2-.36.44-.71.71-1.04.27-.33.53-.58.78-.76l.19.24c-.51.55-.88,1.16-1.13,1.85-.25.68-.37,1.48-.37,2.37,0,.97.12,1.79.35,2.45.23.66.62,1.32,1.16,1.97l-.23.21Z"/>
        <path class="cls-1" d="m169.38,138.37l-.19-.24c.5-.55.88-1.16,1.13-1.85.25-.69.37-1.48.37-2.38,0-.97-.12-1.79-.35-2.45-.23-.66-.62-1.32-1.15-1.97l.23-.2c.67.57,1.19,1.25,1.56,2.03.36.78.54,1.64.54,2.57,0,.54-.06,1.03-.18,1.48-.12.44-.28.85-.48,1.21-.2.36-.44.71-.71,1.04-.27.33-.53.58-.78.76Z"/>
      </g>
    </g>
    <g>
      <path class="cls-3" d="m103.05,91.1c1.05,0,5.87-1.73,7.76-2.72,10.11-5.34,18.94-12.58,24.69-22.57,4.62-8.03,4.91-17.94,5.67-26.95.97-11.64.88-23.29.69-34.98,0-.84-16.71-2.68-18.43-2.83-6.77-.63-15.85-1.05-20.38-1.05s-13.61.42-20.38,1.05c-1.71.16-18.42,1.99-18.43,2.83-.19,11.68-.28,23.34.7,34.98.77,9,1.05,18.91,5.66,26.95,5.76,9.99,14.58,17.22,24.69,22.57,1.88.99,6.71,2.72,7.76,2.72"/>
      <path class="cls-4" d="m127.96,46.63h0s.09.03.13.04c-.05-.01-.08-.03-.13-.04m4.18.72s.08.06.11.09c0-.01,0-.01,0-.01-.03-.03-.07-.06-.12-.08m-.69,2.18s.08.05.12.07v-.02s-.08-.04-.12-.05m-1.55,5.21s.08.07.12.11v-.02s-.08-.06-.12-.09m.11-9.81c-.09-.03-.18-.05-.29-.07,0,0,0,.01.01.02.1,0,.19.03.27.05m-25.96,28c-.33.13-.65.25-1.02.32h.12c.31-.08.61-.19.89-.32m19.29-52.29s-.11.07-.3.18c.14-.08.24-.14.29-.16,0,0,0-.02.01-.02m3.73-12.66h0s-.05,0-.12.03c.05-.02.09-.03.11-.03m-1.41,5.77s-.11.06-.28.15c.14-.07.23-.11.27-.13.01,0,.01-.01.01-.02m5.16,38.4s.08.06.11.1v-.02s-.07-.06-.11-.08m-.29-23.3c.11-.08.22-.16.32-.23-.11.06-.22.13-.33.22,0,0,0,0,.01.01m-7.03,8.72c.05-.01.11-.02.16-.04-.05.01-.11.02-.17.03h0Zm10.85-15.79l-.07.96c-.9,13.86-5.21,18.87-9.29,21.94l-.15.11c-1.29.96-2.75,2.06-5.43,2.95l-.09.03c-.5.16-2.04.65-2.45,1.35-.39.68-.51.73-.59.7-.16-.09.16-1.02.27-1.23.3-.57.81-.88,1.78-1.33,1.83-.86,2.08-1.96,2.06-2.54-.03-.81-.6-1.6-1.37-1.89-.59-.22-1.18-.1-1.55.31.16.08.59.26.66.95.1,1.04-.45,1.47-.94,1.53-.59.07-1.26-.33-1.37-1.13-.21-1.46.56-2.41,1.06-2.74.6-.4.97-.53,1.42-.68,0,0,.76-.28.77-.29,1.23-.21,2.07.46,2.53.82.17.13.31.25.37.22l.07-.07c.17-.36-.08-1.79-.38-2.54l.02-.07h.04c1.13-.16,1.7.59,2.04,1.04.12.16.23.3.28.28.03-.01.05-.04.07-.09.14-.44-.25-2-.6-2.73,0-.02-.02-.05-.04-.06h.01s-.01-.03-.02-.03c1.14-.34,1.84.3,2.22.63.14.13.26.24.31.21l.05-.08c.11-.41-.4-1.87-.83-2.6,0,0,.21-.23.23-.24,1.1-.43,1.8.01,2.22.27.16.1.29.17.34.14l.06-.09c.1-.41-.44-1.74-.88-2.37,0,0,.21-.27.23-.28.88-.3,1.55-.07,1.96.05.17.06.31.1.35.07.03-.02.05-.05.06-.11.05-.39-.46-1.58-.85-2.02,0,0,.18-.26.2-.27.81-.28,1.44-.08,1.82.04l.32.07s.05-.07.05-.15c0-.48-.5-1.65-.8-1.94h-.01s0,0,0,0c0,0-.02-.02-.03-.03.79-.66,1.54-.62,1.94-.6l.29-.02s.03-.04.02-.09c-.02-.31-.59-1.15-.98-1.47.95-1.76,1.62-3.41,1.99-4.9.47-1.88.56-1.87.62-1.85.11.02.1.39-.01,1.85m-22.05,32.16h0c-1.26,2.11-2.86,3.42-6.9,3.42h-2.4v-2.21h2.16c3.3,0,5.55-.44,6.52-1.28.45-.39.57-.37.64-.33.11.08.01.35-.02.41m-9.3-16c.24-.03.49-.04.78-.04,1.95,0,2.82.92,2.82,2.97,0,1.48-.44,2.99-3.6,3.14v-6.07Zm0-32.77c1.98.7,3.07,2.33,2.9,4.4-.17,2-1.45,3.79-2.9,4.01V5.18Zm33.72,23.15s.04-.59.06-.62c.43-.14,2.32-.9,2.67-3.29.05-.37.06-.78.03-1.23l-.11.1c-.37.36-1.52,1.43-2.14,1.29-.16-.03-.27-.14-.35-.33,0-2.38-.18-4.28-.43-6.74.68-.37,2.11-1.43,2.11-3.69-.01-.3-.04-.62-.1-.96l-.12.13c-.37.42-1.36,1.56-1.94,1.49-.14-.02-.25-.1-.32-.26l-.03-.32c-.47-5.06-1.51-7.56-3.59-8.63,0,0-.13-.05-.13-.06,0,.04.11.19.2.35.31.45.81,1.2,1.01,2.08.34,1.51.45,2.73.45,3.72,0,1.15-.16,2-.33,2.69-.27.5-.67.81-1.16.93-1.14.27-2.44-1-2.88-2.02-.01-.03-.04-.07-.06-.07-.09,0-.24.27-.34.46-.37,1.36.09,3.06,1.01,3.71.33.24.88.44,1.53,0,.33-.23.58-.31.75-.26.09.02.16.1.2.22-.43,1.21-.93,2.43-1.47,3.63-.31.28-.66.44-1.05.46-1.29.08-2.37-1.51-2.62-2.63,0-.05-.02-.08-.04-.08-.1-.02-.32.24-.45.43-.65,1.34-.49,3.18.33,4.04.31.32.83.62,1.6.29.39-.18.67-.22.82-.14.07.04.12.11.14.23-.63,1.18-1.32,2.35-2.08,3.52-.29.18-.59.27-.94.26-1.37,0-2.27-1.58-2.37-2.67,0-.04-.02-.07-.04-.07-.09-.03-.37.22-.53.4-.85,1.27-.97,3.03-.27,3.92.39.5.99.63,1.69.37.42-.15.69-.19.81-.11.05.04.07.09.07.17-.74.98-1.52,1.96-2.33,2.91-.54.36-1.09.5-1.65.4-1.45-.22-2.35-2.29-2.35-3.67,0-.06-.01-.1-.04-.11-.11-.05-.44.2-.62.38-1.09,1.38-1.39,3.54-.66,4.73.28.44.81.93,1.78.73.52-.11.82-.09.91.04.06.08.04.2-.05.35,0,0-2.36,2.19-2.37,2.2-.59.37-1.49.75-2.45.41-1.59-.58-2.15-3.12-1.85-4.69.01-.07,0-.13-.03-.15-.12-.08-.55.14-.8.3-1.54,1.33-2.34,3.74-1.76,5.25.21.57.71,1.24,1.87,1.22.64,0,.98.08,1.05.27.06.16-.08.38-.44.66-.32.18-.69.42-.99.79-.7.86-1.02,1.55-1.1,2.4l-.06.87c-.04.68-.09,1.38-.24,2.05-.13.63-.33,1.2-.6,1.69-1.47,2.68-4.92,4.09-8.55,4.61v-5.05c4.41-.13,6.31-2.05,6.31-6.36,0-3.67-1.32-5.27-4.43-5.33-.62,0-1.27.09-1.88.3v-2.8c2.21-1,4.71-2.13,7.32-2.8,6-1.53,10.83-4.84,12.51-8.37.23-.51.4-1.02.5-1.56-.32.21-4.33,2.75-7.32,3.39l-.41.07c-.4.07-.82.15-1.04-.02-.1-.08-.14-.21-.14-.4,0-1.61.89-2.88,2.51-3.57l.16-.07c3.63-1.54,6.45-2.74,7.82-4.62.36-.5.62-1.04.75-1.66-.31.16-4.51,2.38-7.22,2.77l-.15.02c-.33.06-.87.16-1.12-.12-.16-.17-.18-.43-.09-.8.3-1.23.83-1.95,1.81-2.52,1.06-.61,2.21-1.12,3.31-1.61,1.87-.83,3.55-1.58,4.39-2.58.04-.06.1-.11.13-.17.01-.02.02-.03.03-.04.15-.23.26-.47.32-.73l-3.94,1.24-.78.24c-1.12.35-2.29.72-2.67.35-.14-.13-.16-.36-.06-.67.2-.68.37-1.07.69-1.52,1.47-2.1,4.47-4.33,8.05-3.69.59.11.9.06.93,0,0-.04-.1-.16-.56-.33-2.71-.99-5.24-.89-7.51.27-4.15,2.13-7.58,7.86-10.17,17.03-1.49,5.25-4.72,7.14-8.04,8.63v-11.71c1.21-.48,2.27-1.15,3.16-2.05,2.52-2.52,3.43-5.68,2.4-8.44-.84-2.24-2.8-3.78-5.03-3.94-.18,0-.35-.02-.53-.02v-1.69c-4.15,0-12.76.38-19.47,1.01-2.42.22-17.62,1.97-17.63,2.7-.07,3.96-.11,7.89-.11,11.81,0,7.3.18,14.54.78,21.81l.23,2.84c.61,7.95,1.26,16.18,5.2,23.06,5,8.74,12.95,16.03,23.64,21.69.67.35,3.73,1.93,6.29,2.48h.03c.11.03.23.05.34.07.25.04.49.07.71.09v-12.53c3.57.05,9.1.1,10.57-.42,1.41-.49,2.32-1.57,2.56-3.06.27-1.71-.42-3.64-1.65-4.57-.17-.13-.4-.14-.47-.06-.05.06-.01.12.07.28.14.24.35.63.35,1.44,0,.75-.25,1.36-.77,1.84-1.38,1.29-4.2,1.11-4.22,1.11l-3.26-.03h-3.15s.07-.02.11-.03h-.12c1.83-.43,3.13-1.75,3.67-2.76,1.41-2.55.23-4.23-.14-4.72-.06-.08-.11-.11-.11-.11h.02s-.02-.03-.02-.03c.22,0,.42-.01.63-.02-.2.01-.4.02-.61.02l.03.03c.82,0,1.58-.09,2.26-.25-.5.11-1.05.17-1.63.2,6.75-.39,8.18-6.48,8.95-9.8l.13-.55c.24-.98.87-2.72,2.36-3.18.95-.3,1.57-.65,2.03-.92l.54-.28s.19-.08.21-.08c.85.02.82.74.81,1.22,0,.19,0,.38.05.42.04.02.1,0,.19-.06.74-.45,1.09-1.81,1.2-2.59,0-.05,0-.11,0-.16h0v-.04c.93.33,1.01.87,1.06,1.16.02.07.02.15.05.16.03.01.1-.03.24-.13.68-.55.82-1.8.84-2.53v-.03s0-.02,0-.02c1.14.08,1.25.71,1.3,1.02.01.07.03.16.04.16,0,0,.05,0,.19-.15.59-.62.59-1.95.57-2.52,0-.02,0-.05-.02-.08h.01v-.02c.73.06.9.6,1,.93.04.11.07.23.11.24,0,0,.06-.01.17-.15.67-.86.64-2.15.54-2.64-.02-.04-.03-.09-.05-.11h.01s0-.03,0-.03c.75.04.92.53,1.02.82.03.1.06.18.1.19.03,0,.08-.02.2-.17.53-.69.49-2.01.35-2.71.99-1.17,1.61-2.18,1.79-2.9.14-.55.22-.62.28-.62.12.01.15.32.16.5-.16,1.77-.53,4.06-1.07,6.4,0,.01,0,.03-.01.04,0,.02,0,.04,0,.06-.07.32-.15.65-.23.98,0,0-.02,0-.02-.02,0,.02,0,.03,0,.05-.34-.32-1.18-.42-1.37-.22-.09.09.01.23.11.33.36.37.56,1.09.59,1.74,0,.09.02.19.02.27h-.02v.02c-.4-.2-1.06-.25-1.2-.07-.07.09.02.22.12.32.43.44.58,1.37.5,2.06,0,.12-.02.23-.04.32h0s-.01.02-.01.02c-.32-.32-1.18-.42-1.37-.23-.09.09,0,.23.11.34.37.39.47,1.44.39,2.14-.01.12-.02.23-.03.33,0,0-.01,0-.02-.02,0,.02,0,.03,0,.04-.38-.34-1.03-.53-1.18-.4-.06.05-.03.19.09.36.48.7.33,2.01.17,2.51-2.17,4.82-4.57,7.28-7.17,7.33-2.11.04-3.24-1.85-3.37-3.2-.19-1.96,1.68-3.26,2.81-3.72.82-.34,1.33.12,1.52.34.66.8.58,1.35.39,1.67-.25.42-.81.63-1.18.56-.63-.12-1.13.12-1.33.63-.2.48-.07,1.02.32,1.29.62.44,1.43.47,2.28.09,1.07-.48,1.99-1.52,2.09-2.37.17-.75-.12-2.26-.7-2.87-1.32-1.81-2.99-2.34-4.46-1.43-2.62,1.62-4.08,3.46-4.24,5.34-.14,1.71.79,3.45,2.75,5.18,2.34,2.06,6.13.79,7.82-1.02,0,0,.2-.15.23-.15.44.17,2.52.79,4.36-1.02.23-.23.46-.49.68-.81h-.17c-.55.08-2.02.23-2.39-.25-.09-.12-.1-.3,0-.5,1.07-1.47,2.05-3.33,2.93-5.57.46-.03,2.48-.29,3.43-2.53.14-.35.25-.73.33-1.18l-.16.08c-.51.29-1.9,1.08-2.34.74-.15-.11-.18-.34-.09-.67.52-1.8.99-3.8,1.42-5.97.64-.1,2.55-.61,3.14-3.1.08-.31.13-.63.15-.99l-.15.1c-.48.32-1.75,1.19-2.32.95-.15-.06-.23-.19-.27-.38.29-1.93.54-4.01.77-6.23.29-.08,2.8-.9,2.8-4.11,0-.11-.01-.22-.01-.33-.04.03-.09.07-.09.07-.43.39-1.55,1.42-2.15,1.27-.14-.03-.24-.14-.3-.32l.26-5.15.03-.8Zm-13.06,21.31c.07.02.14.05.2.08-.06-.04-.13-.07-.2-.1h0Zm2.2-1.41s.07.01.11.01c-.04,0-.07-.02-.11-.02h0Z"/>
      <path class="cls-3" d="m99.79,40.16c-.05.25.05.51.22.58.07.03.26.06.45-.27l.17-.41c.39-1,.75-1.87,2.41-2.05v-1.86c-1.61.53-3.01,1.83-3.26,4.01m-23.32,10.94h0c-.07,0-.13,0-.21,0h.21Zm-.03.04h.04l.06-.04-.62-4.17c0-.22,0-.39-.1-.46-.11-.09-.33-.06-.75.06-5.9,1.93-5.93,4.16-5.44,8.26.03.27.4.75.54.76h.04l.03-.05c.07-.36.29-.86.39-1.04,1.72-3.05,4.64-3.33,5.82-3.31m18.32-16.39c-.72.96-1.08,3.21-1.08,6.69,0,5.51,4.25,6.27,8.85,6.27.18,0,.36,0,.53-.01v-3.77c-.17.01-.35.02-.53.02-3.89,0-5.36-.29-5.36-3.42,0-3.7,1.69-5.18,4.22-6.3l1.63-.73s.02,0,.04-.02v-4c-.42.19-.84.37-1.26.55-2.54,1.1-5.17,2.24-7.03,4.71m2.95-29.31c-.26.34-.47.72-.37.83.07.06.18.01.35-.14,1.46-1.26,3.19-1.59,5.13-.98.09.03.16.07.24.09v-1.9c-3.4-.08-4.94,1.56-5.35,2.1m-17.94,36.75c0,.98.84,1.78,1.86,1.78s1.86-.8,1.86-1.78-.83-1.77-1.86-1.77-1.86.79-1.86,1.77m5.87-25.83h0s0,0,0,0c0,0,0,0,0,0m-1.38,25.83c0,1.37-1.17,2.49-2.63,2.49s-2.62-1.12-2.62-2.49,1.18-2.49,2.62-2.49,2.63,1.12,2.63,2.49m17.55-28.94c-.37-.37-.33-2.04-.33-2.06,0-2.15-1.8-2.92-3.34-2.92-1.64,0-3.35.87-3.35,2.32l.02,5.48c0,.29-.1.53-.28.69-.16.14-.38.21-.64.21-.51,0-1.03-.31-1.03-.84v-2.95c0-3.35-3.76-3.85-6-3.85-3.2,0-6.6,1.43-6.6,4.08v13.55c.01.73-.45,1.25-.85,1.48-.35.2-.71.22-.97.06-.22-.14-.47-.48-.4-1.31,0-.11-.04-.2-.13-.22-.11-.03-.29.06-.43.39-.38,1.01-.36,1.93.07,2.75.55,1.06,1.65,1.66,2.25,1.8l-.03,1.88h-.02c-2.13-.04-4.71-.86-4.71-4.74V10.37c0-2.85-1.17-3.81-2.17-4.12-1.83-.57-4.21.67-5.22,2.13-1.05,1.53-.74,2.92-.11,3.71.73.89,1.93,1.19,3.02.74.02,0,.22-.14.2-.27,0-.09-.09-.13-.24-.16-.74-.12-1.18-.61-1.18-1.32,0-.78.69-1.44,1.49-1.44s1.46.64,1.46,1.44v2.74l.02,16.05c-2.17-.04-2.76,1.73-2.76,2.78,0,1.64,1.15,2.26,1.2,2.28.05.03.16.02.23-.05.06-.05.1-.16,0-.36-.27-.54-.28-1.02-.03-1.37.33-.46,1.03-.62,1.55-.55.33.05.56.18.63.37.8,2.26,2.87,3.4,6.34,3.51.07,0,.2.07.33.2l-.02,1.02c-1.06.46-3.43,2.01-3.32,6.47.07,3.41.75,8.16,1.39,8.63.06.04.11.06.16.04,2.89-.8,7.17-.85,9.34.44.3.17.46.39.44.59-.01.11-.08.2-.19.24-.11.05-.22.01-.31-.08-.95-.96-3.63-1.07-4.42-1.08-2.99-.05-9.14.88-10.96,4.72-1.04,2.2,1.07,6.64,2.19,8.05.06.09.22.09.33.04.09-.04.13-.11.12-.18-.44-2.2.43-4.37,2.45-6.11,2.46-2.11,6.05-3.08,8.36-2.25.3.11.51.3.54.51.02.1,0,.2-.07.24-.06.05-.14.05-.23.02-2.99-1.3-6.06.67-6.09.69,1.3,7.78,10.78,7.59,17.69,7.45l2.37-.03s2.64,2.63,2.28,4.83c-.15.88-.75,1.59-1.8,2.1-1.07.51-5.28.24-5.72-.1-.23-.19-.33-.75-.23-1.42.13-1.04.76-2.46,2.07-3.03.14-.04.21-.1.2-.18-.03-.16-.47-.28-.77-.24-2.41.3-4.14,1.52-4.76,3.34-.13.4-.2.59-.21,1.02-.06.77-.25.78-1.25.9l-.55.06c-1.9.24-2.98,1.15-3.21,2.7-.18,1.23.2,2.47,1.05,3.42.71.78,1.61,1.2,2.49,1.17.05,0,.13-.05.15-.13.03-.07,0-.19-.22-.31-1.08-.62-1.36-1.62-1.16-2.34.22-.79.98-1.27,1.98-1.26.02,0,.43-.01.45.3v.3s.07.87.07.87c.41,2.35,2.2,4.4,4.37,5,.07.02.24-.05.28-.16.04-.1,0-.24-.36-.39-1.15-.85-1.57-2.53-1.57-3.82,0-.86.18-1.57.45-1.77.47-.37,2.24-.6,3.12.28.87.87,1.26,1.66,1.11,2.24-.1.38-.45.66-1.01.8-.07.01-.1.14-.08.22,0,.05.05.19.27.15,2.32-.34,3.12-2.15,3.11-3.6,0-.02-.03-.09.02-.16.04-.06.14-.09.28-.09l1.71.03c.28,0,.6,0,.93,0v-19.55h-6.5c-1.51-.01-2.08.65-2.12,1.26-.06.81.81,1.78,2.48,1.99.11.02.37.17.36.28,0,.03-.03.1-.39.11-1.11.02-3.43.05-4.27-1.31-.51-.83-.55-1.91-.08-2.74.59-1.07,1.94-1.65,3.79-1.65h6.74v-2.62c-3.38.5-6.91.23-9.14-.49-4.19-1.37-7.69-5.2-6.25-9.87.2-.64.65-1.32,1.39-2.06.91-.91,1.83-.93,2.13-.94.12.02.2,0,.24-.07.07-.15-.19-.43-.19-.43-1.46-1.74-7.52-2.25-8.72-1.74-.04.01-.07-.04-.09-.07-.49-.89-.67-6.62,1.5-8.11.9-.63,1.86-.86,2.54-.62.56.2.96.69,1.18,1.45.27.89,0,1.94-.59,2.33-.44.29-1,.19-1.58-.29-.16-.13-.22-.32-.29-.49l-.07-.19c-.05-.12-.17-.27-.27-.26-.04,0-.08.02-.1.1-.08,1.82.64,3.15,1.98,3.64,2.32.85,4.86-.04,6.46-2.27,1.48-2.07,2.1-5.57.66-6.79-.1-.09-.18-.11-.24-.08-.12.08-.07.4-.06.46.01,1.95-1.25,3.34-2.47,3.57-1.06.2-1.94-.45-2.44-1.78,0,0,.04-.28.36-.26,1.07.1,1.84-.29,2.23-1.12.49-1.04.08-2.49-.94-3.37-.04-.01-.26-.07-.34,0-.02.02-.05.05-.05.11.15,1.27-.18,2.07-.91,2.23-.68.13-1.49-.36-1.67-1.02-.19-.69.37-1.34,1.56-1.76.06-.02.07-.06.08-.09.02-.1-.08-.21-.08-.23-1.56-.52-3.2.04-3.77,1.25-.38.81-.03,2.25.85,2.66,0,0,.04.05-.02.14-.17.25-.98.56-1.74.32-.55-.17-1.21-.69-1.21-2.17v-8.95c0-.92,1.02-1.41,2.01-1.49.99-.08,2.11.23,2.26,1.11.19,1.12.04,1.41-.31,1.58-.69.33-1.29-.21-1.29-.21-.01,0-.01.02-.02.03h-.01s-.01.02-.01.04c-.11.22-.1.44.02.65.25.47.91.86,1.67.99.76.13,1.33.04,1.71-.27.28-.24.43-.61.43-1.09v-1.45c0-.67.37-1,.72-1.01.3-.02.64.21.69.75l.02,1.93-.02,3.18c0,2.29,1.79,3.33,3.44,3.33s3.35-1.07,3.35-3.1v-4.72c0-.87.36-1.43.94-1.49.6-.05,1.35.45,1.52,1.36.2,1.03.12,1.2-.16,1.73l-.16.31-.12.23c-.27.54-.39.79-.3.92.07.09.25.09.6.05,1.14-.14,2.16-.4,3.09-.77v-4.42s-.04,0-.06.01c-.41.06-.84.09-1.19-.27"/>
      <path class="cls-2" d="m174.56,98.82c-.28-3.5-3.25-5.94-17.25-2.7-.05-1.6-.12-3.02-.15-3.7-.12-2.69-2.98-4.16-8.79-3.99-2.86.1-4.38.21-5.46.36-3.89-3.01-5.05-7.8-4.83-12.1l5.63-6.51c1.5-1.16-3.53-6.29-8.42-4.84l-9.57,12.62c.15-.12.3-.23.45-.34-2.32,2.94-2.15,8.56,1.18,14.13-7.89,1.3-16.86,2.56-23.24,2.56-.37,0-.75,0-1.12-.01-.39,0-.77.01-1.14.01-6.37,0-15.35-1.26-23.23-2.56,3.33-5.57,3.5-11.18,1.18-14.13.16.11.3.22.45.34l-9.57-12.62c-4.88-1.44-9.91,3.68-8.42,4.84l5.64,6.51c.21,4.3-.95,9.09-4.85,12.1-1.07-.15-2.6-.26-5.46-.36-5.81-.18-8.67,1.29-8.79,3.99-.04.68-.1,2.11-.16,3.7-14-3.24-16.97-.8-17.25,2.7-.22,2.86-.32,8.46,0,10.52.33,2.06,3.41,3.59,6.72,4.16,7.67,1.31,22.22-.38,33.41-10.28,7.06,1.64,15.65,3.71,30.31,3.71.39,0,.75,0,1.14-.02.37.01.74.02,1.12.02,14.67,0,23.26-2.08,30.31-3.71,11.19,9.9,25.75,11.59,33.42,10.28,3.32-.57,6.4-2.1,6.73-4.16.32-2.06.23-7.66,0-10.52"/>
      <path class="cls-3" d="m174.24,106.99c-.12-.14-.25-.28-.4-.39-2.22-1.75-6.69-1.15-10.72-.46-1.23.21-2.73.62-4.32,1.06-3.56.96-7.97,2.17-9.56,1.05-.37-.25-.56-.63-.6-1.17-.03-.35.08-.5.15-.58.48-.48,2.08-.37,3.5-.26,1.97.14,3.98.26,4.99-.79.45-.48.62-1.72.69-2.87.07-.97.07-2.74-.04-6,7.71-1.75,12.7-1.86,14.81-.32.81.59,1.22,1.41,1.32,2.62.17,2.05.26,5.59.18,8.12m-6.44,5.96c-6.25,1.07-20.53.32-32.15-9.43,4.17-.96,7.86-1.72,12.06-1.71-.42.94-.52,2.19-.53,2.83-.04,1.67.26,3.7,1.23,4.4.02,0,.04,0,.04.02.05.04.09.08.13.11,2.02,1.43,6.32.25,10.49-.89,1.57-.42,3.05-.83,4.22-1.03,4.06-.71,8.06-1.16,9.83.23.56.43.85,1.04.92,1.84-.31,1.56-2.86,3.05-6.26,3.63m-33.88-10.18c-4.75,1.11-10.32,2.4-18.02,3.1.08-.09.11-.19.07-.3,0,0-.4-3.33-2.31-4.99.6-.7,1.74-2.17,2.2-2.12.26.02.05,1.35.29,1.54.16.12.92.13.95-.09.13-1.41-.69-5.12-4.33-4.73l.09-.65v-.19c5.73-.59,12.01-1.58,17.53-2.53-.17.07-.28.18-.27.36.02.73.8,1.06,1.41.95.17-.03.15.39.01.55-.23.25-1.06.4-1,1.37.2,3.22,2.39,1.65,2.52,1.98.25.64-1.34.3-1.34.88.01.83,1.88-.05,1.93.13.29.91-2.17.31-2.14,1.19.02.9,2.47-.05,2.5.14.22.9-1.4.29-1.36,1.17.02.37.61.32.92.23.67-.19,1.33-.41,1.87-.86.24.24.33.56.45.86.15.41.07.86.15,1.35,0,.06,0,.11.02.16-.71.16-1.41.32-2.14.49m-21.73,3.37v-.25c.14-1.22.28-3.09.66-3.75.47-.82,1.18.66,1.25.85.24.71.82,2.49.85,2.96-.89.08-1.81.14-2.75.2m-.98,0s.02.03.03.06c-2.22.11-4.58.17-7.13.17-.38,0-.75,0-1.13,0-.38,0-.74,0-1.13,0-4.84,0-9.02-.23-12.7-.59-.12-.32-.32-1.42.1-1.46.55-.04,1.28.68,1.58.22.68-1.09-.7-1.87-1.59-2.46.22-.24.57-.68.64-.64,1.48.91,4.06,1.2,4.33-.84.24-1.91,1.42-4.04.38-5.99,0-.05-.01-.09-.02-.12,2.62.24,5.1.39,7.28.39.37,0,.75-.02,1.13-.02.38,0,.77.02,1.13.02,2.18,0,4.64-.15,7.25-.39v.17c.01.24.39.96-.6,1.07-2.2.21-2.89,5.52-1.71,5.56.81.03.41-.86.6-1.27.09-.19,1.81.39,2.46.93-.58,1.06-.79,2.3-.88,3.52-.03.45.02,1.56,0,1.68m-22.25-7.17c.4-.16.72.79.87,1.32.1.32-.29,1.01-.56.94-1.04-.31-1.43-1.84-.31-2.26m-1.27,6.66c-6.5-.73-11.4-1.87-15.65-2.86-2.29-.53-4.41-1.03-6.52-1.4-.03-2.56.63-5.31.22-7.87-.01-.05-.57,0-.9,0,.13,2.47-.72,5.16-.56,7.67-3.5-.54-7.06-.7-11.35-.1-1.55.22-2.84.43-3.84,1.16,0-.31-.03-.71-.03-1.28,0-1.5.06-4.01.24-8.19v-.3c.15-3.06,4.56-3.56,8.22-3.44,5.04.16,5.9.39,7.46.79.84.22,1.89.49,3.82.83.11.05.23.12.31.16.92.33,1.66,2.17,1.68,3.38.06,2.48-1.21,5.04-.13,7.49.04.08.39.02.62.02-.55-3.17,1.79-6.58.05-9.6-.12-.22-.07-.81.18-.97,5.09.89,11.31,1.96,17.28,2.74-.35.37-1.03,1.28-1.18,1.7-.46,1.36.71,2.68-.31,4.08-.44.62.49,1.56.37,2.04-.25,1-2.11,1.81-1.31,2.8.63.79.99-1.33,1.44-1.11.73.36.21,1.89-.11,2.28m-49.53,7.32c-3.4-.58-5.95-2.07-6.26-3.63.07-.8.36-1.41.92-1.84,1.77-1.39,5.77-.94,9.83-.23,1.18.2,2.65.6,4.23,1.03,4.17,1.14,8.48,2.32,10.49.89.05-.03.09-.08.13-.11.02-.01.04-.01.05-.02.98-.7,1.27-2.73,1.24-4.4-.02-.64-.12-1.89-.54-2.83,4.21,0,7.9.75,12.07,1.71-11.62,9.75-25.9,10.49-32.15,9.43m11.13-9.41c.74-.9,1.83-1.09,3.8-1.36,1.35-.19,2.63-.31,3.87-.35.32.31.66,1.35.69,2.84.01.28,0,.54-.01.8-.92-.57-2.44-.46-4.05-.34-1.62.11-3.47.25-4.08-.44-.22-.24-.29-.62-.22-1.14m-17.39-4.67c.1-1.2.52-2.02,1.32-2.62,2.12-1.54,7.1-1.43,14.82.32-.11,3.26-.11,5.03-.05,6,.07,1.16.24,2.4.69,2.87,1.02,1.06,3.02.94,4.99.79,1.41-.1,3.02-.22,3.5.26.08.08.17.22.15.58-.04.54-.23.91-.59,1.17-1.59,1.12-6-.08-9.56-1.05-1.59-.44-3.09-.85-4.32-1.06-4.03-.69-8.5-1.29-10.72.46-.15.11-.28.25-.4.39-.09-2.54.02-6.07.17-8.12m35.74-15.8c.53-1.59.77-3.23.81-4.86l2.47,2.85c.11.12.28.19.46.19.17-.01.33-.1.44-.25,1.46-2.2,3.09-3.49,4.7-3.73.97-.14,1.92.11,2.86.73.48.6.84,1.33,1.08,2.18.22.76.33,1.63.33,2.6,0,2.41-.77,5.35-2.49,8.35-2.96-.49-5.78-.99-8.24-1.42l-.99-.18c-1.92-.33-2.96-.6-3.78-.82-.34-.09-.65-.16-.99-.24,1.75-1.65,2.78-3.6,3.36-5.39m-4.98-13.25s-.05-.05-.08-.07c-.03-.03-.05-.08-.05-.15,0-.13.06-.32.16-.54.82-1.6,4.24-4.1,7.65-3.2.22.29,5.81,7.64,7.93,10.43-.63-.17-1.27-.22-1.92-.12-1.77.26-3.51,1.54-5.04,3.64-.82-.94-8.65-9.98-8.65-9.98m26.59,25.34c.22.25.51.45.66.74.36.72-.31,1.01-.66,1.44-.3-.44-.73-.89-.61-1.44.06-.29.38-.49.61-.74m.97-1.15c1.3.16,2.59.3,3.84.42-.87.89.27,2.9-1.06,3.64-.22-.52-.65-.41-1.02-.32-.51.12-.46.8-.28.98.5.52,1.99.34,1.59,1.52-.28.82-.84,1.59-1.59,1-1.51-1.17-1.46-3.18-.93-5.06.06-.17,0-.99-.45-1.45-.16-.16-.2-.56-.1-.73m21.64,3.41c.26.1.64.1.8-.1.26-.3-.14-1.12.31-1.16,1.35-.11,1.93.63,2.29,1.07.09.13-1.92,1.78-2.52,2.74-.67-.49-1.83-.7-2.7-.97,0,0-.14-.56.28-1.03.53.53,1.15,1.19,2.06,1.19.95-.01,2.17-1.8,1.74-2.12-.66-.47-1.14,1.79-2.35,1-.43-.29-1.13-1.17-.34-1.31.29-.05.14.57.42.69m20.2-1.63c.19-.13.67-.17.77.07.05.11.14.27.05.38-.1.13-.47.25-.64.2-.04,0-.66-.32-.18-.65m-.64-3.6c-.06-.03-.04-.47-.19-.53.27-.04.54-.09.81-.14.04.23.06.46-.04.61-.11.17-.4.17-.58.06m.55,2.21l.13-.08c.16-.04.35-.25.52-.07.18.18.17.5.02.66-.19.2-.64.1-.78-.11-.08-.14.07-.3.11-.39m-6.77-11.62c0-.96.12-1.83.33-2.6.24-.85.61-1.57,1.08-2.18.93-.62,1.88-.87,2.85-.73,1.63.24,3.25,1.53,4.71,3.73.1.15.26.24.43.25.18,0,.35-.06.46-.19l2.47-2.85c.04,1.63.29,3.28.8,4.86.58,1.79,1.61,3.74,3.36,5.39-.33.08-.64.16-.99.24-.83.22-1.86.49-3.78.82l-.98.18c-1.11.2-2.3.41-3.55.62-.18,0-.42.02-.75.13h0c-1.28.22-2.6.45-3.95.68-1.73-3-2.49-5.94-2.49-8.35m10.44-16.92c3.41-.9,6.83,1.61,7.65,3.2.11.22.17.4.17.54,0,.07-.02.12-.06.15-.03.02-.05.05-.08.07,0,0-7.84,9.05-8.65,9.98-1.54-2.1-3.27-3.38-5.05-3.64-.65-.1-1.29-.04-1.91.12,2.12-2.79,7.7-10.14,7.93-10.43m-2.59,25.7s-.02-.09-.03-.21c.26-.04.53-.08.79-.13-.02.11-.04.23-.15.3-.2.14-.49.01-.61.04m1.47,5.15c.08-.27,1.25.11,1.35-.73.03-.17.24.15.61.3.35.16,1.39-.37,2.02-.28.05.02.94,4.82.76,5.54l-2.01.34c-.07-2.42-1.17-4.86-1.75-4.87-.52,0-1.11.24-.97-.29m-.79-2.25c-.12-.15-.07-.46-.01-.49.06-.02.44-.23.61-.12.11.09.22.26.16.41-.11.25-.57.44-.76.2m.87.87c.24.04.42.08.42.34,0,.31-.45.36-.53.39-.11.04-.4.03-.44-.08-.16-.41.1-.71.54-.64m21.86,9.36c-.62.69-2.45.55-4.08.44-1.61-.12-3.14-.23-4.06.34,0-.26,0-.52,0-.8.04-1.48.38-2.53.7-2.84,1.23.04,2.51.16,3.86.35,1.97.27,3.05.47,3.79,1.36.08.52,0,.9-.22,1.14m-8.03-15.68c3.68-.12,8.09.38,8.22,3.44v.3c.2,4.18.26,6.69.26,8.19,0,.58-.01.97-.02,1.28-1.01-.73-2.29-.94-3.84-1.16-4.87-.68-8.77-.38-12.76.33l-.06-.4c.14-.31-.79-5.04-.66-5.26.35-.51,1.98.04,1.95-.96-.02-.88-1.41-.48-2.07-.54-.26-.02-.24-.07-.29-.28-.07-.38-.45-2.19-.76-2.48-.28-.28-.71-.03-.79.32-.17.56.74,2.78.39,2.79-.91.04-1.83.82-1.9.61-.16-.44-.17-1.13-.49-1.57-.43-.61-1.94-.19-1.96-.47-.04-.68.42-.6.69-.75.19-.1.38-.23.41-.46.04-.28.06-.66-.1-.89.5-.09,1-.18,1.49-.26l.98-.18c1.97-.34,3.02-.62,3.87-.84,1.55-.4,2.42-.63,7.45-.79m26.75,9.78c-.12-1.53-.69-2.65-1.78-3.44-2.43-1.77-7.38-1.74-15.51.09-.03-.83-.07-1.73-.11-2.74l-.02-.3c-.09-2.2-1.8-4.76-9.37-4.51-2.65.08-4.18.19-5.26.32-2.01-1.62-3.14-3.64-3.74-5.48-.62-1.88-.81-3.89-.75-5.81l5.5-6.34c.28-.25.73-.86.13-2.03-.99-1.96-5.01-4.95-9.11-3.74-.11.04-.22.11-.29.2l-9.58,12.61c-.11.14-.14.32-.09.48-.31.54-.57,1.12-.75,1.78-.27.95-.4,1.95-.4,3,0,2.67.86,5.6,2.44,8.44-7.7,1.26-16.23,2.44-22.38,2.44-.37,0-.75-.02-1.13-.02-.38,0-.76.02-1.13.02-6.14,0-14.68-1.18-22.37-2.44,1.58-2.84,2.45-5.77,2.45-8.44,0-1.05-.13-2.05-.4-3-.19-.66-.44-1.24-.75-1.78.04-.16.02-.34-.09-.48l-9.59-12.61c-.07-.09-.17-.16-.29-.2-4.1-1.21-8.13,1.79-9.12,3.74-.6,1.17-.15,1.78.13,2.03l5.5,6.34c.07,1.92-.13,3.93-.75,5.81-.6,1.84-1.72,3.87-3.74,5.48-1.07-.14-2.6-.24-5.25-.32-7.58-.25-9.28,2.31-9.38,4.51v.3c-.06,1-.1,1.91-.13,2.74-8.13-1.83-13.08-1.86-15.5-.09-1.07.78-1.66,1.91-1.79,3.44-.22,2.82-.33,8.5,0,10.65.41,2.58,4.14,4.11,7.2,4.63,6.54,1.12,21.64.3,33.69-10.23l.13.03c6.94,1.62,15.59,3.63,30.05,3.63.39,0,.75,0,1.13,0,.38,0,.75,0,1.13,0,14.47,0,23.12-2.01,30.06-3.63.05-.01.09-.02.12-.03,12.05,10.53,27.15,11.34,33.69,10.23,3.07-.53,6.78-2.05,7.19-4.63.35-2.14.23-7.83,0-10.65m-106.97-6.4c.06,0,.1-.46-.02-.56-1.62-1.39-3.57-.67-5.39-.66-.47.02-.31.59-.33.96.22,0,.45.02.68,0,1.75-.23,3.33.65,5.07.26m-1.33,1.44c.23.96-.04,5.76.69,7.15.18.29.58-.06.62-.32.32-2.32.05-4.49-.41-6.81-.01-.06-.57-.02-.9-.02m-3.96-.02c-.28.66-1.04,4.91-1.13,5.83.23,0,.59.05.62-.02.83-1.95,1.24-4.01,1.42-6.11-.34,0-.73-.1-.9.31"/>
    </g>
  </g>
</svg>